<svg width="60" height="328" viewBox="0 0 60 328" fill="none" xmlns="http://www.w3.org/2000/svg">
<path d="M34 4C34 1.79086 32.2091 9.65645e-08 30 0C27.7909 -9.65645e-08 26 1.79086 26 4L34 4ZM27.1716 326.828C28.7337 328.391 31.2663 328.391 32.8284 326.828L58.2843 301.373C59.8464 299.81 59.8464 297.278 58.2843 295.716C56.7222 294.154 54.1895 294.154 52.6274 295.716L30 318.343L7.37257 295.716C5.81047 294.154 3.27781 294.154 1.71572 295.716C0.153618 297.278 0.153618 299.81 1.71572 301.373L27.1716 326.828ZM26 4L26 324L34 324L34 4L26 4Z" fill="white" fill-opacity="0.9"/>
</svg>
