<svg width="834" height="168" viewBox="0 0 834 168" fill="none" xmlns="http://www.w3.org/2000/svg">
<path d="M826 4.5C826 2.29086 827.791 0.5 830 0.5C832.209 0.5 834 2.29086 834 4.5H826ZM32.8284 166.828C31.2664 168.391 28.7336 168.391 27.1716 166.828L1.7157 141.373C0.153625 139.81 0.153625 137.278 1.7157 135.716C3.27783 134.154 5.81049 134.154 7.37256 135.716L30 158.343L52.6274 135.716C54.1895 134.154 56.7222 134.154 58.2843 135.716C59.8464 137.278 59.8464 139.81 58.2843 141.373L32.8284 166.828ZM834 4.5V50H826V4.5H834ZM798 86H62V78H798V86ZM34 114V164H26V114H34ZM62 86C46.5361 86 34 98.536 34 114H26C26 94.1177 42.1178 78 62 78V86ZM834 50C834 69.8822 817.882 86 798 86V78C813.464 78 826 65.464 826 50H834Z" fill="white" fill-opacity="0.9"/>
</svg>
