<svg width="834" height="168" viewBox="0 0 834 168" fill="none" xmlns="http://www.w3.org/2000/svg">
<path d="M8 4C8 1.79086 6.20914 0 4 0C1.79086 0 0 1.79086 0 4H8ZM801.172 166.328C802.734 167.891 805.266 167.891 806.828 166.328L832.284 140.873C833.846 139.31 833.846 136.778 832.284 135.216C830.722 133.654 828.19 133.654 826.627 135.216L804 157.843L781.373 135.216C779.81 133.654 777.278 133.654 775.716 135.216C774.154 136.778 774.154 139.31 775.716 140.873L801.172 166.328ZM0 4V49.5H8V4H0ZM36 85.5H772V77.5H36V85.5ZM800 113.5V163.5H808V113.5H800ZM772 85.5C787.464 85.5 800 98.036 800 113.5H808C808 93.6177 791.882 77.5 772 77.5V85.5ZM0 49.5C0 69.3822 16.1177 85.5 36 85.5V77.5C20.536 77.5 8 64.964 8 49.5H0Z" fill="white" fill-opacity="0.9"/>
</svg>
